<?xml version="1.0" encoding="UTF-8"?>
<!DOCTYPE svg PUBLIC "-//W3C//DTD SVG 1.1//EN" "http://www.w3.org/Graphics/SVG/1.1/DTD/svg11.dtd">
<!-- Creator: CorelDRAW -->
<svg xmlns="http://www.w3.org/2000/svg" xml:space="preserve" width="1165mm" height="600mm" style="shape-rendering:geometricPrecision; text-rendering:geometricPrecision; image-rendering:optimizeQuality; fill-rule:evenodd; clip-rule:evenodd"
viewBox="0 0 1165 600"
 xmlns:xlink="http://www.w3.org/1999/xlink">
 <defs>
  <style type="text/css">
   <![CDATA[
    .str0 {stroke:red;stroke-width:0.0762}
    .fil0 {fill:none}
    .fil1 {fill:blue}
   ]]>
  </style>
 </defs>
 <g id="Layer_x0020_1">
  <metadata id="CorelCorpID_0Corel-Layer"/>
  <g id="_402746776">
   <path id="Body" class="fil0 str0" d="M14.1417 516.539l-0.0021 -4.6585c-0.0011,-2.3334 0.0584,-3.642 1.7083,-5.2919 1.6499,-1.6499 2.959,-1.7082 5.2919,-1.7082l32.5597 0 0.0001 -14.6194c0,-4.2796 3.502,-7.7833 7.7818,-7.7818l0.2671 0.0001c-0.0301,-0.3898 -0.1462,-0.7035 -0.3277,-1.0501 -0.1815,-0.3466 -0.4245,-0.6804 -0.6914,-0.9764 -0.2672,-0.2962 -0.5583,-0.5551 -0.9074,-0.8336 -0.3489,-0.2786 -0.7558,-0.577 -1.1713,-0.9162 -0.4156,-0.3393 -0.84,-0.7197 -1.14,-1.1693 -0.3,-0.4497 -0.4757,-0.9692 -0.6895,-1.5659 -0.2136,-0.5967 -0.4656,-1.2712 -0.6363,-2.0166 -0.1707,-0.7452 -0.2601,-1.5616 -0.3532,-2.3447 -0.0931,-0.7835 -0.19,-1.5341 -0.1871,-2.2202 0.0026,-0.6859 0.1048,-1.3079 0.3087,-1.855 0.2039,-0.5473 0.5094,-1.0199 0.9087,-1.4054 0.3993,-0.3857 0.8924,-0.6843 1.3933,-0.8455 0.5009,-0.1609 1.01,-0.1845 1.4776,-0.1027 0.4674,0.0817 0.8932,0.2689 1.2766,0.508 0.3833,0.239 0.7242,0.5301 1.0468,0.5359 0.3227,0.0058 0.6268,-0.274 1.0166,-0.4538 0.3898,-0.1803 0.8653,-0.2608 1.2933,-0.2132 0.4278,0.0472 0.8084,0.2227 1.0651,0.521 0.2568,0.2983 0.3901,0.7198 0.4619,1.1541 0.0718,0.4345 0.0821,0.8821 -0.0157,1.2246 -0.0979,0.3422 -0.3042,0.5794 -0.4972,0.7279 -0.193,0.1485 -0.373,0.2087 -0.5896,0.2979 -0.2164,0.0894 -0.4695,0.208 -0.5893,0.5978 -0.1199,0.3899 -0.1065,1.0512 -0.2305,1.5705 -0.1242,0.5194 -0.3861,0.8969 -0.6544,1.2438 -0.2683,0.3467 -0.5434,0.6629 -0.5528,1.0184 -0.0094,0.3555 0.2468,0.7506 0.5322,1.182 0.2855,0.4314 0.6002,0.8994 0.732,1.3639 0.1318,0.4643 0.0805,0.9253 0.0296,1.3862 -0.0511,0.4607 -0.1021,0.9216 -0.0969,1.4452 0.0053,0.5237 0.067,1.1104 0.1733,1.6554 0.1018,0.5225 0.2532,1.0693 0.5069,1.5401 0.743,-0.0016 1.486,-0.0033 2.229,-0.0049 0.0097,-0.6403 0.037,-1.3004 0.0865,-1.9588 0.0919,-1.2195 0.2598,-2.4338 0.456,-3.6649 0.1965,-1.2311 0.4216,-2.4791 0.726,-3.7549 0.3047,-1.2757 0.6892,-2.5795 1.1145,-3.8918 0.4253,-1.3122 0.8916,-2.6334 1.423,-3.8509 0.5315,-1.2173 1.1279,-2.3309 1.7969,-3.5562 0.6689,-1.2254 1.4102,-2.5628 2.2496,-3.7928 0.8394,-1.2297 1.7768,-2.3521 2.7903,-3.4693 1.0135,-1.1173 2.103,-2.2295 3.0973,-3.0855 0.9948,-0.8562 1.8943,-1.4563 2.9014,-2.0045 1.007,-0.5481 2.1218,-1.0444 3.082,-1.4112 0.9603,-0.3667 1.7664,-0.6041 2.3741,-0.7664 0.6078,-0.1627 1.0175,-0.2507 1.135,-0.8006 0.1175,-0.5502 -0.0568,-1.5625 -0.1661,-2.6209 -0.1094,-1.0585 -0.1534,-2.163 -0.0961,-3.193 0.0575,-1.0297 0.2168,-1.9851 0.3363,-2.9749 0.1198,-0.9897 0.1999,-2.0139 0.3766,-3.0373 0.1768,-1.0233 0.4501,-2.0458 0.77,-3.1001 0.32,-1.0542 0.687,-2.1399 1.0517,-3.2356 0.3646,-1.0957 0.7274,-2.202 1.1737,-3.4653 0.4466,-1.2634 0.9772,-2.6844 1.5656,-4.085 0.5884,-1.401 1.2346,-2.7824 1.8728,-4.1511 0.6382,-1.3686 1.2683,-2.7252 1.9409,-3.9835 0.6726,-1.2583 1.3875,-2.4186 2.1385,-3.6616 0.7508,-1.2431 1.5375,-2.5687 2.3307,-3.8635 0.7933,-1.295 1.5932,-2.5593 2.5598,-3.945 0.9665,-1.3857 2.0999,-2.893 3.0927,-4.1556 0.993,-1.2629 1.8457,-2.2814 2.6711,-3.3261 0.8256,-1.0448 1.6242,-2.116 2.4079,-3.0555 0.7838,-0.9394 1.5532,-1.7472 2.1373,-2.2688 0.5844,-0.5218 0.9837,-0.7575 1.3517,-0.7401 0.3679,0.0175 0.7045,0.288 0.9086,0.7904 0.2044,0.5026 0.2761,1.2369 0.254,2.4308 -0.0223,1.1937 -0.139,2.847 -0.4194,4.6849 -0.2802,1.8385 -0.7242,3.862 -1.2559,6.2254 -0.5321,2.3635 -1.1516,5.0675 -1.7616,7.4156 -0.6101,2.3482 -1.2107,4.3409 -1.6082,5.733 -0.3977,1.3922 -0.5919,2.1836 0.029,1.7827 0.6209,-0.4011 2.0571,-1.9947 3.7097,-3.6776 1.6526,-1.6828 3.5218,-3.455 4.9835,-4.8292 1.4618,-1.3741 2.5164,-2.3503 3.2865,-2.9546 0.77,-0.6045 1.2556,-0.8372 1.527,-0.6706 0.2715,0.1667 0.3286,0.7329 0.0895,1.5659 -0.2387,0.8333 -0.7738,1.9339 -1.3578,3.2052 -0.5842,1.2715 -1.2172,2.7143 -2.044,4.4021 -0.8267,1.6876 -1.8473,3.6204 -2.6967,5.3024 -0.8494,1.6819 -1.528,3.1127 -1.6507,3.7389 -0.1227,0.6262 0.3103,0.4476 0.8873,0.2915 0.5772,-0.1558 1.2984,-0.2891 2.1958,-0.4497 0.8975,-0.1603 1.9713,-0.3481 3.0341,-0.4367 1.0628,-0.089 2.1147,-0.079 3.1468,-0.0113 1.032,0.0678 2.0446,0.1932 3.0825,0.3883 1.0379,0.1949 2.1017,0.4595 3.0879,0.762 0.986,0.3025 1.8947,0.6431 2.5947,0.9105 0.7001,0.2676 1.1918,0.462 1.8696,0.1774 0.6781,-0.2849 1.5425,-1.049 2.921,-2.0622 1.3786,-1.0134 3.2712,-2.2767 5.3342,-3.6941 2.0631,-1.4175 4.2967,-2.9894 5.9668,-4.1405 1.6704,-1.1511 2.7778,-1.8815 3.1804,-2.5999 0.4029,-0.7185 0.1014,-1.4251 -0.4511,-2.3026 -0.5525,-0.8775 -1.356,-1.9264 -2.1441,-2.9033 -0.788,-0.9769 -1.5609,-1.8823 -2.4344,-2.9589 -0.8739,-1.0764 -1.8485,-2.324 -2.723,-3.4537 -0.8744,-1.1301 -1.6487,-2.1419 -2.3613,-3.0175 -0.7127,-0.8755 -1.3641,-1.6139 -1.8542,-2.1514 -0.4904,-0.5375 -0.8195,-0.8739 -0.0121,-0.7045 0.8077,0.1694 2.7522,0.8449 4.5876,1.5113 1.8355,0.6666 3.5621,1.3244 5.4553,2.1606 1.8933,0.8363 3.9535,1.851 5.7699,2.7786 1.8165,0.9277 3.3895,1.7686 4.5477,2.4735 1.1581,0.7046 1.9015,1.2736 2.9291,1.1707 1.0277,-0.1026 2.3397,-0.8771 3.9918,-1.8635 1.6522,-0.9865 3.6442,-2.1854 5.682,-3.3724 2.0374,-1.187 4.1204,-2.3623 6.2835,-3.5122 2.1635,-1.1497 4.4074,-2.274 6.6314,-3.3404 2.2241,-1.0663 4.4285,-2.0751 6.0177,-2.7055 1.5894,-0.6302 2.5636,-0.8822 2.9469,-0.6431 0.3835,0.239 0.1759,0.9694 -0.3213,1.8472 -0.4969,0.8779 -1.2837,1.9038 -2.3301,3.3171 -1.0462,1.4136 -2.3523,3.215 -2.8961,4.2742 -0.544,1.0594 -0.3258,1.3769 0.4701,1.8914 0.7961,0.5148 2.17,1.2268 3.8615,2.1707 1.6915,0.9437 3.7004,2.1195 5.5134,3.3799 1.8129,1.2605 3.43,2.606 5.1624,3.9909 1.7326,1.3849 3.5807,2.8093 5.2203,4.1606 1.6398,1.3512 3.0709,2.6294 4.1734,3.7745 1.1026,1.1451 1.8771,2.1573 2.2583,2.2361 0.3809,0.079 0.3689,-0.7754 0.3906,-1.5725 0.0217,-0.7975 0.0772,-1.5379 0.0425,-2.5479 -0.0348,-1.0102 -0.1594,-2.2902 -0.3618,-3.8321 -0.2023,-1.5419 -0.4823,-3.3457 -0.7863,-5.112 -0.3041,-1.7665 -0.6324,-3.4955 -0.9335,-5.1983 -0.3011,-1.7028 -0.5752,-3.3793 -0.7343,-4.4699 -0.1591,-1.0904 -0.203,-1.5953 0.3587,-1.3731 0.5618,0.2222 1.7297,1.1714 3.3202,2.9937 1.5909,1.8224 3.6048,4.518 5.6801,7.5002 2.0754,2.9824 4.2123,6.2516 5.7351,8.656 1.523,2.4047 2.432,3.945 3.2324,4.6301 0.8004,0.6852 1.4924,0.5151 2.2904,0.2904 0.7978,-0.2248 1.7019,-0.5044 2.4334,-0.4901 0.7314,0.0144 1.2905,0.3231 1.7133,0.5965 0.4229,0.2734 0.7099,0.5118 1.2466,0.7178 0.537,0.206 1.3241,0.3801 1.9166,0.5956 0.5925,0.2156 0.9907,0.473 1.2664,0.8102 0.2759,0.3372 0.4299,0.7538 0.528,1.3113 0.0981,0.5573 0.1408,1.2552 0.1387,1.8447 -0.002,0.5898 -0.0487,1.0711 -0.0726,1.5582 -0.0239,0.4871 -0.0254,0.98 0.1582,1.337 0.1837,0.3569 0.5526,0.5778 1.1209,0.8306 0.5686,0.2529 1.3366,0.538 1.9409,0.8582 0.6043,0.3202 1.0448,0.6755 1.2476,1.0711 0.2026,0.3957 0.1677,0.8318 0.1292,1.1506 -0.0388,0.3191 -0.0812,0.521 0.1477,0.7396 0.229,0.2185 0.7295,0.454 0.9849,0.7955 0.2555,0.3415 0.2657,0.7892 0.1936,1.3509 -0.0723,0.5618 -0.2274,1.2379 -0.4832,1.5927 -0.2558,0.3548 -0.6127,0.3886 -0.9601,0.3668 -0.3476,-0.0219 -0.6856,-0.0995 -1.2026,-0.0633 -0.5171,0.0359 -1.2137,0.1853 -1.6581,0.4093 -0.4447,0.224 -0.6378,0.5226 -0.7541,0.8794 -0.1161,0.3571 -0.1555,0.7725 -0.2468,1.1458 -0.0914,0.373 -0.2346,0.7035 -0.4979,0.8243 -0.2634,0.1209 -0.6467,0.0317 -0.8242,0.4018 -0.1777,0.3703 -0.1497,1.1998 -0.0954,1.7022 0.0543,0.5026 0.1348,0.6782 0.478,0.8294 0.3431,0.1513 0.9489,0.2784 1.2954,0.5467 0.347,0.2683 0.435,0.678 0.4679,1.1317 0.033,0.4534 0.0114,0.9508 0.1854,1.0633 0.1741,0.1128 0.5441,-0.1597 1.065,-0.3785 0.5206,-0.2188 1.1921,-0.3844 1.9009,-0.3758 0.7088,0.0085 1.4549,0.1912 2.062,0.4251 0.6073,0.2339 1.0756,0.5191 1.3871,0.7735 0.3117,0.2545 0.467,0.4783 0.6295,0.7862 0.1624,0.3078 0.3322,0.6999 0.4084,1.3048 0.0763,0.6049 0.0589,1.4228 -0.1016,2.1212 -0.1607,0.6987 -0.465,1.2782 -0.8042,1.6938 -0.3392,0.4154 -0.7138,0.6673 -1.154,0.9117 -0.4402,0.2443 -0.9464,0.4816 -1.4143,0.7962 -0.468,0.3147 -0.8982,0.7069 -1.0766,1.0237 -0.1784,0.3167 -0.1051,0.5582 0.1086,0.7052 0.2137,0.1469 0.5677,0.1994 1.0644,0.3178 0.4965,0.1183 1.136,0.3024 1.6057,0.6943 0.4697,0.3921 0.7699,0.9917 0.806,1.3588 0.0358,0.3673 -0.1924,0.5021 -0.5025,0.6543 -0.3101,0.1521 -0.7021,0.3221 -1.1154,0.4428 -0.4132,0.1209 -0.8477,0.1926 -1.5741,0.4021 -0.7261,0.2095 -1.7442,0.5564 -2.1224,0.8411 -0.3781,0.2846 -0.1161,0.5068 0.1574,0.6838 0.2737,0.1769 0.559,0.3086 0.8194,0.5742 0.2604,0.2652 0.4963,0.6645 0.5308,1.0748 0.0345,0.4104 -0.1321,0.8319 -0.5607,1.1809 -0.4286,0.349 -1.1191,0.6257 -1.5972,0.9426 -0.4784,0.3168 -0.7445,0.6739 -0.983,0.9607 -0.2383,0.2868 -0.4489,0.5035 -0.5781,1.2489 -0.1293,0.7454 -0.1772,2.0198 -0.3033,3.5783 -0.1259,1.5588 -0.3304,3.4024 -0.6685,5.0709 -0.3381,1.6685 -0.8102,3.1624 -1.327,4.6979 -0.5167,1.5355 -1.0779,3.1128 -0.8896,3.6402 0.1881,0.5273 1.1256,0.0048 1.8884,-0.5339 0.7627,-0.5385 1.3507,-1.0933 2.0827,-1.6252 0.7321,-0.532 1.6082,-1.0415 2.3864,-1.5084 0.7781,-0.4668 1.4583,-0.8914 2.2094,-1.2346 0.751,-0.3432 1.5731,-0.6054 2.2547,-0.773 0.6817,-0.1678 1.2231,-0.2411 1.3845,-0.8863 0.1615,-0.6453 -0.0569,-1.8625 -0.2722,-3.0158 -0.2155,-1.1535 -0.4278,-2.2434 -0.6455,-3.407 -0.2176,-1.1638 -0.4403,-2.4013 -0.6264,-3.5183 -0.1861,-1.1169 -0.3357,-2.1132 0.1143,-2.1133 0.4497,-0.0002 1.499,0.9959 2.606,2.1616 1.1072,1.1657 2.272,2.5009 3.3425,3.6959 1.0706,1.1947 2.0466,2.2494 2.7622,3.0384 0.7157,0.7891 1.1709,1.3126 1.7363,1.5018 0.5655,0.1895 1.2413,0.0443 2.1257,-0.0277 0.8843,-0.0719 1.977,-0.0708 3.0443,0.0108 1.0673,0.0818 2.1089,0.2439 3.373,0.5938 1.2641,0.3499 2.7507,0.8879 4.1341,1.5443 1.3833,0.6565 2.6637,1.4316 3.7332,2.1232 1.0698,0.6917 1.9286,1.3 2.4231,1.408 0.4946,0.1082 0.6246,-0.284 0.5807,-0.6387 -0.0439,-0.3548 -0.2621,-0.6723 -0.6044,-0.92 -0.3423,-0.2479 -0.8093,-0.4263 -1.2767,-0.808 -0.4675,-0.3815 -0.936,-0.9667 -1.0735,-1.4085 -0.1377,-0.4416 0.0553,-0.7403 0.3631,-1.0527 0.308,-0.3124 0.7307,-0.6388 1.1115,-0.8598 0.3812,-0.221 0.7205,-0.3366 1.1111,-0.3134 0.3906,0.0233 0.8326,0.1855 1.1531,0.4809 0.3204,0.2954 0.5195,0.7242 0.676,1.0547 0.1567,0.3306 0.2711,0.563 0.4985,0.5249 0.2273,-0.038 0.5682,-0.3467 0.846,-0.5992 0.278,-0.2523 0.493,-0.4485 0.8806,-0.4889 0.3877,-0.0404 0.948,0.0751 1.1857,-0.115 0.2376,-0.1903 0.1526,-0.6864 -0.0442,-1.1048 -0.1968,-0.4183 -0.5057,-0.7589 -0.5403,-1.1693 -0.0345,-0.4103 0.2054,-0.8905 0.4255,-1.3126 0.22,-0.4219 0.4202,-0.7865 0.7208,-1.0329 0.3004,-0.2466 0.7015,-0.3755 1.1819,-0.5323 0.4805,-0.1563 1.0409,-0.3412 1.4599,-0.7844 0.4189,-0.4435 0.6967,-1.1459 0.8603,-1.9305 0.1635,-0.785 0.213,-1.6526 0.1793,-2.3093 -0.0339,-0.657 -0.1511,-1.1032 -0.3479,-1.5215 -0.1969,-0.4184 -0.4736,-0.809 -0.8342,-1.0421 -0.3607,-0.2333 -0.8055,-0.3093 -1.3725,-0.6053 -0.5669,-0.2961 -1.2562,-0.8123 -1.7324,-1.2349 -0.4763,-0.4226 -0.7399,-0.7518 -0.7949,-1.1577 -0.055,-0.406 0.0985,-0.8889 0.0632,-1.3525 -0.0352,-0.4639 -0.2592,-0.9084 -0.4742,-1.3122 -0.2151,-0.4037 -0.4217,-0.7664 -0.3962,-1.1468 0.0254,-0.3803 0.2829,-0.7784 0.6618,-1.0095 0.3788,-0.2315 0.879,-0.2958 1.4079,-0.2273 0.529,0.0687 1.0865,0.2702 1.4486,0.6103 0.3622,0.3401 0.5292,0.8184 0.4745,1.3122 -0.0548,0.4936 -0.3313,1.0029 -0.37,1.3218 -0.0386,0.319 0.1606,0.4477 0.4362,0.4848 0.2757,0.0372 0.6284,-0.0168 0.8799,-0.3922 0.2514,-0.3755 0.4019,-1.0718 0.3505,-1.9606 -0.0515,-0.8886 -0.3049,-1.9697 -0.3155,-2.8671 -0.0105,-0.8975 0.222,-1.6117 0.5934,-2.077 0.3713,-0.4653 0.882,-0.682 1.7303,-0.8211 0.8486,-0.1394 2.0352,-0.2011 2.8133,-0.0683 0.7783,0.133 1.1487,0.4606 1.5061,1.0532 0.3577,0.5926 0.7025,1.4502 1.0607,2.0961 0.3583,0.6461 0.7299,1.0805 1.0724,1.4783 0.3423,0.3978 0.6557,0.7592 0.8774,1.1936 0.2217,0.4342 0.3524,0.9419 0.2705,1.4094 -0.0819,0.4673 -0.3758,0.8946 -0.6815,1.2172 -0.3057,0.3227 -0.6231,0.541 -0.8556,0.8049 -0.2324,0.2643 -0.3802,0.5743 -0.4371,0.9079 -0.0571,0.3337 -0.0232,0.6906 0.0975,1.1039 0.1209,0.413 0.3288,0.883 0.3195,1.2381 -0.0094,0.3556 -0.2362,0.5972 -0.6824,0.8641 -0.4461,0.2672 -1.1115,0.5603 -1.2095,1.2023 -0.0977,0.6423 0.3722,1.6342 0.7785,2.6287 0.4062,0.9946 0.7489,1.9924 1.0841,3.2057 0.3354,1.2134 0.6636,2.6426 1.0745,4.4076 0.5062,2.1743 1,4.3408 1.4294,6.5323 1.3314,-0.0142 2.6292,-0.0242 3.8991,-0.029 -0.0718,-0.8359 -0.1498,-1.5781 -0.2227,-2.1859 -0.1739,-1.4515 -0.3184,-2.1373 -0.4628,-2.8231 1.0936,0.7723 2.1875,1.5446 3.3608,2.3752 1.1733,0.8307 2.4264,1.7197 3.6306,2.59 1.2045,0.8703 2.3604,1.7222 3.5163,2.5739 -0.2567,-1.3591 -0.5133,-2.7184 -0.637,-3.9892 -0.1236,-1.271 -0.1142,-2.4539 -0.0316,-3.9238 0.0825,-1.4698 0.238,-3.2268 0.4174,-4.7799 0.1793,-1.5533 0.3826,-2.9028 0.6019,-4.0049 0.2194,-1.1021 0.4549,-1.9572 0.6905,-2.8121 0.5472,0.7477 1.0942,1.4954 1.9246,2.5188 0.8305,1.0233 1.9446,2.3225 3.5332,4.1469 1.5889,1.8244 3.6527,4.1741 5.7164,6.5238 0.3922,-0.6835 0.7847,-1.3671 1.1904,-2.4718 0.4057,-1.1048 0.8248,-2.6308 1.4291,-4.2525 0.6043,-1.6217 1.3936,-3.3392 2.2487,-5.0593 0.8552,-1.7199 1.7764,-3.4426 2.546,-4.8431 0.7696,-1.4006 1.3878,-2.4795 2.006,-3.5584 0.2689,1.0857 0.5378,2.1717 1.0172,4.1818 0.4793,2.0099 1.1692,4.9443 1.823,7.8278 0.6538,2.8834 1.2714,5.7161 1.7622,8.2032 0.4909,2.4872 0.8546,4.6292 1.0819,6.0939 0.2275,1.4648 0.3183,2.2526 0.4092,3.0403 0.5111,0.6855 1.0225,1.3711 1.7891,2.4106 0.7667,1.0395 1.7887,2.4331 2.7684,4.0328 0.9799,1.5999 1.9179,3.4061 2.6753,5.0781 0.7575,1.672 1.3347,3.2099 1.7477,4.2583 0.4131,1.0484 0.6619,1.6075 0.9107,2.1665 0.8277,0.5959 1.6555,1.1919 2.9619,2.1106 3.027,2.1291 2.3234,1.2474 5.1718,3.3646 3.0455,2.2638 3.1007,2.7335 7.8577,7.3355 -2.6012,0.7521 -5.8403,1.6318 -10.4471,2.0649 -6.9687,-0.2663 -7.7188,-0.1387 -8.5936,-0.4191 0.4453,1.0607 0.8907,2.1218 1.3993,3.2348 0.5088,1.1128 1.081,2.278 1.699,3.396 0.618,1.1179 1.2823,2.1886 1.8193,3.0344 0.5372,0.8458 0.9476,1.467 1.3901,1.9798 0.4425,0.5129 0.9175,0.9179 1.3923,1.3226 -0.7305,-0.0766 -1.4614,-0.1533 -2.2875,-0.2945 -0.8264,-0.1413 -1.7484,-0.3471 -2.6268,-0.5455 -0.8786,-0.1983 -1.7138,-0.3892 -2.673,-0.6186 -0.9593,-0.2294 -2.043,-0.4973 -2.9812,-0.8297 -0.9381,-0.3324 -1.7311,-0.7298 -2.5078,-1.1208 -0.7766,-0.3909 -1.5374,-0.7757 -2.3588,-1.2674 -0.8215,-0.4916 -1.7041,-1.09 -2.5866,-1.6884 -0.2132,0.8448 -0.4265,1.6901 -0.6695,2.709 -0.243,1.0188 -0.5158,2.212 -0.7004,3.2718 -0.1846,1.0599 -0.2811,1.9869 -0.4074,2.8467 -0.1263,0.8598 -0.2824,1.6526 -0.3902,2.3433 -0.1077,0.691 -0.167,1.2801 -0.1221,1.8627 0.045,0.5827 0.1945,1.1593 0.3438,1.7356 -0.6246,-0.6424 -1.2495,-1.2849 -2.1047,-2.1232 -0.8551,-0.8383 -1.941,-1.8722 -2.7051,-2.7059 -0.7643,-0.8338 -1.2068,-1.4672 -1.7637,-2.1168 -0.557,-0.6495 -1.2285,-1.3153 -2.0614,-1.7954 -0.8331,-0.4804 -1.8282,-0.7755 -2.7365,-1.0409 -0.9083,-0.2654 -1.7304,-0.5013 -2.8556,-0.5691 -1.1252,-0.0678 -2.5542,0.0322 -3.9518,0.1721 -1.3977,0.1399 -2.7644,0.3194 -4.075,0.5947 -0.1475,0.031 -0.2943,0.0632 -0.4408,0.0965l0 2.1825c0.5348,-0.0227 1.0713,-0.0302 1.6101,-0.0222 2.1723,0.0323 4.3817,0.3144 6.5908,0.5968 -1.0858,0.9449 -2.1717,1.8899 -3.061,2.9269 -0.8892,1.037 -1.582,2.1661 -1.9883,2.8358 -0.4062,0.6698 -0.5262,0.8804 0.0133,0.9735 0.5394,0.093 1.7382,0.0688 3.0429,0.1994 1.3047,0.1306 2.7155,0.4161 3.8621,0.7106 1.1467,0.2946 2.0295,0.5981 2.8643,0.9591 0.8351,0.3609 1.6224,0.7795 2.4098,1.198 -0.3033,0.375 -0.6065,0.7501 -1.2763,1.3145 -0.67,0.5644 -1.7068,1.3183 -2.9208,1.9812 -1.2138,0.6628 -2.6051,1.235 -3.6397,1.6265 -1.0345,0.3916 -1.7126,0.6031 -2.3906,0.8144 0.2356,0.3033 0.471,0.6067 0.9926,0.9584 0.5216,0.3519 1.3293,0.7522 1.9602,1.0168 0.631,0.2648 1.0851,0.394 1.5393,0.5232 -0.3987,0.3362 -0.7975,0.6726 -1.4363,1.2348 -0.6388,0.5622 -1.5178,1.3505 -2.4606,2.0604 -0.9429,0.7097 -1.9499,1.3413 -3.1731,1.8545 -0.8024,0.3367 -1.6981,0.6225 -2.5387,0.8167l0 22.795c0,4.2796 -3.5018,7.7818 -7.7818,7.7818l-284.848 0 -4.1295 0c-4.28,0 -7.7818,-3.5019 -7.7818,-7.7818l0 -5.1588 -0.0164 -59.9996z"/>
   <path id="_403921648" class="fil0 str0" d="M198.747 420.084c-0.8945,-2.2717 -4.4515,-8.6637 -6.366,-12.1947 -1.9146,-3.5309 -2.187,-4.201 -3.6421,-2.7961 -1.4552,1.4049 -4.0934,4.8846 -5.5133,6.7531 -1.4199,1.8687 -1.6218,2.1262 0.1868,3.6661 1.8087,1.54 5.6279,4.3624 5.7915,3.4276 0.1635,-0.9349 -3.3286,-5.6271 -2.7875,-6.3002 0.5411,-0.6731 5.1154,2.6727 8.2864,5.27 3.1709,2.5972 4.9387,4.4459 4.0442,2.1742z"/>
   <circle id="_403921552" class="fil0 str0" cx="24.1486" cy="581.979" r="2.75"/>
   <circle id="_403921456" class="fil0 str0" cx="23.6396" cy="509.88" r="2.75"/>
   <circle id="_403921360" class="fil0 str0" cx="310.852" cy="581.979" r="2.75"/>
   <circle id="_403921024" class="fil0 str0" cx="309.925" cy="488.928" r="2.75"/>
   <circle id="_403921120" class="fil0 str0" cx="167.175" cy="411.678" r="2.75"/>
  </g>
  <g id="_403921960">
   <path id="CorneaT" class="fil1" d="M225.28 439.72c0.7124,-0.1744 1.3709,-0.1014 2.057,0.2012 0.6862,0.3026 1.4004,0.8349 1.9637,1.4637 0.5635,0.6289 0.9763,1.3546 1.307,2.0976 0.3309,0.743 0.5799,1.5037 0.7966,2.3141 0.2167,0.8104 0.4014,1.6707 0.4382,2.541 0.0369,0.8705 -0.0741,1.7513 -0.2391,2.5792 -0.165,0.8281 -0.3843,1.6037 -0.7981,2.2708 -0.4138,0.6672 -1.0223,1.2264 -1.6453,1.6171 -0.6231,0.3908 -1.261,0.6134 -1.9017,0.6223 -0.6407,0.009 -1.2845,-0.1957 -1.8683,-0.5203 -0.5838,-0.3245 -1.1077,-0.7692 -1.6053,-1.3908 -0.4975,-0.6216 -0.969,-1.4202 -1.3129,-2.2247 -0.344,-0.8045 -0.5608,-1.6149 -0.6884,-2.5087 -0.1275,-0.8938 -0.1658,-1.8711 -0.1091,-2.8044 0.0568,-0.9334 0.2087,-1.823 0.4513,-2.6891 0.2425,-0.8661 0.5759,-1.7089 1.1258,-2.341 0.5498,-0.6322 1.3163,-1.0538 2.0286,-1.228zm-0.8527 7.4559c-0.1383,0.1047 -0.1411,0.4909 -0.0861,0.8968 0.0549,0.4061 0.1678,0.8317 0.3185,1.1849 0.1508,0.3533 0.3397,0.6342 0.5796,0.754 0.2399,0.1199 0.5311,0.079 0.7899,-0.0623 0.259,-0.1413 0.4857,-0.3828 0.6685,-0.679 0.1827,-0.2963 0.3216,-0.6475 0.4093,-0.9877 0.0876,-0.3401 0.1242,-0.6693 0.0381,-0.7942 -0.0861,-0.1249 -0.2946,-0.0455 -0.5133,0.0335 -0.2186,0.0791 -0.4476,0.1578 -0.7024,0.1417 -0.2548,-0.0161 -0.5358,-0.1273 -0.813,-0.2713 -0.2773,-0.144 -0.551,-0.321 -0.6891,-0.2164z"/>
   <path id="CorneaR" class="fil1" d="M216.361 448.56c1.0094,0.7265 2.0188,1.4531 2.7614,2.164 0.7425,0.711 1.2184,1.4064 1.6232,2.1481 0.4048,0.7418 0.7388,1.5302 1.027,2.4203 0.2882,0.8902 0.5308,1.8824 0.6851,2.7922 0.1541,0.9098 0.22,1.7373 0.1606,2.7188 -0.0594,0.9816 -0.2442,2.1171 -0.4148,2.5195 -0.1706,0.4026 -0.3274,0.072 -0.4561,-0.3288 -0.1289,-0.4008 -0.23,-0.872 -0.4496,-1.4461 -0.2196,-0.5741 -0.5579,-1.2513 -0.9267,-1.922 -0.3688,-0.6707 -0.7685,-1.3347 -1.1131,-1.7428 -0.3446,-0.408 -0.6344,-0.5601 -0.6891,-0.3663 -0.0549,0.1939 0.1253,0.7337 0.1599,1.2939 0.0345,0.5604 -0.0765,1.1413 -0.325,1.7301 -0.2485,0.5889 -0.6346,1.186 -1.0608,1.6952 -0.4263,0.5092 -0.893,0.9308 -1.467,1.3002 -0.5742,0.3696 -1.2558,0.6873 -1.9118,0.9244 -0.6561,0.2372 -1.2866,0.3941 -2.0429,0.5135 -0.7563,0.1195 -1.6385,0.2015 -2.4387,0.1162 -0.8003,-0.0853 -1.5187,-0.3382 -2.2114,-0.6714 -0.6928,-0.3334 -1.3602,-0.7473 -1.9301,-1.2569 -0.5699,-0.5097 -1.0427,-1.1152 -1.4394,-1.8655 -0.3966,-0.7504 -0.7173,-1.6457 -0.956,-2.5585 -0.2388,-0.9128 -0.3956,-1.8432 -0.5006,-2.8811 -0.1048,-1.0379 -0.1579,-2.1835 -0.1494,-3.1921 0.0084,-1.0087 0.0785,-1.8807 0.2866,-2.8573 0.2083,-0.9765 0.5546,-2.0578 0.8499,-2.8281 0.2953,-0.7703 0.5395,-1.2298 0.4933,-1.5948 -0.0461,-0.3649 -0.3828,-0.6356 -0.84,-0.8695 -0.4572,-0.2339 -1.0352,-0.4312 -1.4367,-0.5057 -0.4016,-0.0745 -0.627,-0.0261 -0.8492,0.2358 -0.2223,0.2619 -0.4417,0.7375 -0.685,1.4002 -0.2434,0.6628 -0.5108,1.5129 -0.7262,2.7052 -0.2155,1.1924 -0.3789,2.7272 -0.3843,4.0994 -0.0054,1.3722 0.147,2.582 0.3873,3.7515 0.2402,1.1696 0.5684,2.2989 0.9453,3.257 0.377,0.9581 0.803,1.7451 0.8681,1.9989 0.0653,0.2538 -0.2305,-0.0255 -0.6512,-0.7386 -0.4208,-0.713 -0.9669,-1.8598 -1.3981,-3.1705 -0.4312,-1.3107 -0.7477,-2.7853 -0.8367,-4.2978 -0.0889,-1.5127 0.0497,-3.0635 0.2438,-4.3049 0.1943,-1.2413 0.4442,-2.1733 0.8,-3.1601 0.3559,-0.9869 0.818,-2.0288 1.2033,-2.5292 0.3853,-0.5005 0.6941,-0.4595 1.2244,-0.2841 0.5303,0.1753 1.2825,0.4853 2.1135,0.8639 0.831,0.3786 1.7413,0.8261 2.8144,1.4848 1.0733,0.6587 2.3098,1.5289 3.7072,2.6 1.3974,1.0711 2.9559,2.3436 4.2612,3.5844 1.3053,1.2409 2.3576,2.4505 3.5027,3.9935 1.1453,1.5431 2.3835,3.4197 3.0218,4.1663 0.6383,0.7466 0.6768,0.3633 0.6283,-0.1519 -0.0484,-0.5152 -0.1836,-1.1623 -0.3724,-1.9213 -0.1889,-0.7589 -0.4314,-1.6299 -0.7041,-2.4803 -0.2729,-0.8504 -0.5763,-1.6805 -1.3149,-2.7689 -0.7387,-1.0885 -1.9128,-2.4357 -3.087,-3.7828zm-8.5421 5.9831c0.2984,-0.2568 0.6334,-0.393 1.013,-0.421 0.3796,-0.0278 0.804,0.0525 1.1909,0.2586 0.3871,0.2062 0.7369,0.5382 1.0442,1.072 0.3073,0.534 0.5724,1.2697 0.7196,1.9558 0.1473,0.686 0.1767,1.3225 0.0197,1.9882 -0.1571,0.6656 -0.5007,1.3607 -0.8831,1.9247 -0.3824,0.5641 -0.8037,0.9974 -1.2388,1.3156 -0.4351,0.3183 -0.8842,0.5219 -1.3237,0.5198 -0.4396,-0.002 -0.8699,-0.2097 -1.2343,-0.5599 -0.3643,-0.3503 -0.6629,-0.8433 -0.8869,-1.4379 -0.224,-0.5945 -0.3735,-1.291 -0.3627,-1.9895 0.0108,-0.6985 0.1818,-1.3994 0.3951,-2.0021 0.2134,-0.6028 0.4694,-1.1077 0.7281,-1.5488 0.2588,-0.4411 0.5206,-0.8187 0.8189,-1.0755z"/>
   <path id="CorneaL" class="fil1" d="M232.616 452.638c0.0681,0.0176 0.1546,0.6203 0.2133,1.2931 0.0587,0.673 0.0897,1.4162 0.03,2.1359 -0.0598,0.7197 -0.2104,1.4163 -0.4083,2.0907 -0.1981,0.6744 -0.4437,1.327 -0.7346,1.9679 -0.2909,0.6408 -0.6273,1.2701 -1.1011,1.9073 -0.4738,0.6372 -1.0851,1.2827 -1.2284,1.6133 -0.1432,0.3307 0.1816,0.3467 0.6021,0.31 0.4207,-0.0367 0.937,-0.126 1.5675,-0.2827 0.6305,-0.1568 1.375,-0.381 2.1269,-0.6708 0.7519,-0.2899 1.511,-0.6457 2.314,-1.0965 0.8031,-0.4508 1.65,-0.9968 2.4771,-1.6348 0.8271,-0.6382 1.6344,-1.3685 2.2392,-2.0445 0.6047,-0.676 1.0068,-1.298 1.4294,-1.9241 0.4226,-0.6263 0.8658,-1.257 1.2488,-1.9176 0.3831,-0.6606 0.7063,-1.3514 0.8964,-1.5636 0.1901,-0.2121 0.2471,0.0543 0.3511,0.439 0.104,0.3847 0.2549,0.8879 0.3993,1.6603 0.1443,0.7724 0.2821,1.814 0.3278,2.8753 0.0457,1.0614 -0.0009,2.1426 -0.0488,3.293 -0.048,1.1504 -0.0976,2.3703 -0.2826,3.3994 -0.185,1.0291 -0.5057,1.8677 -0.8864,2.568 -0.3808,0.7004 -0.8218,1.2628 -1.4869,1.8442 -0.6651,0.5814 -1.5544,1.1823 -2.2381,1.566 -0.6838,0.3838 -1.1622,0.5508 -1.6405,0.7176 1.2573,-0.955 2.5146,-1.9101 3.3519,-2.7002 0.8373,-0.7903 1.2547,-1.4159 1.5524,-2.1599 0.2976,-0.7441 0.4759,-1.607 0.6275,-2.9284 0.1517,-1.3215 0.2769,-3.1017 0.2567,-4.4775 -0.0202,-1.3757 -0.1857,-2.3471 -0.3497,-2.9117 -0.1642,-0.5647 -0.3266,-0.7227 -0.6088,-0.4907 -0.2824,0.232 -0.6845,0.8538 -0.794,1.3914 -0.1096,0.5377 0.0735,0.9912 0.1687,1.4849 0.0953,0.4937 0.1027,1.0277 0.0861,1.599 -0.0167,0.5713 -0.0574,1.1801 -0.1698,1.804 -0.1126,0.624 -0.2967,1.2634 -0.4531,1.8324 -0.1563,0.5691 -0.285,1.068 -0.5021,1.5538 -0.217,0.4858 -0.5227,0.9584 -0.9147,1.428 -0.3919,0.4698 -0.8701,0.9367 -1.3058,1.3516 -0.4359,0.4148 -0.8294,0.7778 -1.2835,1.0573 -0.4541,0.2795 -0.9691,0.4757 -1.4744,0.6163 -0.5054,0.1407 -1.0015,0.2256 -1.5646,0.3465 -0.5632,0.1208 -1.1936,0.2776 -1.77,0.1871 -0.5765,-0.0906 -1.0989,-0.4284 -1.5401,-0.8371 -0.4412,-0.4088 -0.8013,-0.8886 -1.086,-1.4166 -0.2847,-0.528 -0.4941,-1.1044 -0.6105,-1.647 -0.1165,-0.5427 -0.1401,-1.0519 -0.2732,-1.3232 -0.1333,-0.2714 -0.3762,-0.3049 -0.6336,-0.3568 -0.2575,-0.0519 -0.5296,-0.122 -0.6883,-0.3129 -0.1588,-0.1908 -0.2043,-0.5025 -0.0933,-0.7833 0.1111,-0.281 0.3788,-0.5313 0.6332,-0.8429 0.2545,-0.3117 0.4959,-0.6849 0.8015,-1.1575 0.3056,-0.4726 0.6755,-1.0447 1.0176,-1.6965 0.3421,-0.6518 0.6565,-1.3835 0.8545,-2.0579 0.198,-0.6745 0.2798,-1.2919 0.3322,-1.9458 0.0525,-0.6539 0.0757,-1.3445 0.1121,-1.9735 0.0364,-0.6291 0.0859,-1.1969 0.1539,-1.1793zm1.9658 10.6113c0.3649,-0.0462 0.6006,0.0533 0.8171,0.2638 0.2166,0.2106 0.4142,0.5325 0.5701,0.9596 0.156,0.4271 0.2703,0.9597 0.3136,1.4109 0.0433,0.4513 0.0156,0.8215 -0.0597,1.1696 -0.0752,0.3482 -0.1981,0.6746 -0.4086,1.0411 -0.2105,0.3665 -0.5089,0.7733 -0.7984,1.0711 -0.2896,0.2977 -0.5705,0.4867 -0.8439,0.6096 -0.2736,0.1229 -0.5399,0.18 -0.8471,0.096 -0.3072,-0.084 -0.6555,-0.3092 -0.9943,-0.5899 -0.3387,-0.2808 -0.668,-0.6173 -0.7946,-1.0078 -0.1267,-0.3905 -0.0508,-0.8354 0.0515,-1.3071 0.1023,-0.4718 0.2309,-0.9709 0.3968,-1.4455 0.1659,-0.4748 0.3691,-0.9255 0.5826,-1.2283 0.2135,-0.3029 0.4374,-0.4582 0.7964,-0.6316 0.3591,-0.1734 0.8536,-0.3653 1.2185,-0.4115z"/>
   <polygon id="_403920304" class="fil1" points="243.699,566.651 240.186,570.151 217.213,570.151 213.699,566.651 217.213,563.151 240.186,563.151 "/>
   <polygon id="_403920208" class="fil1" points="245.785,534.565 249.285,538.079 249.285,561.051 245.785,564.565 242.285,561.051 242.285,538.079 "/>
   <polygon id="_403920112" class="fil1" points="243.699,532.479 240.186,535.979 217.213,535.979 213.699,532.479 217.213,528.979 240.186,528.979 "/>
   <polygon id="_403920016" class="fil1" points="211.613,534.565 215.113,538.079 215.113,561.051 211.613,564.565 208.113,561.051 208.113,538.079 "/>
   <polygon id="_403919920" class="fil1" points="245.785,500.393 249.285,503.907 249.285,526.879 245.785,530.393 242.285,526.879 242.285,503.907 "/>
   <polygon id="_403919824" class="fil1" points="243.699,498.307 240.186,501.807 217.213,501.807 213.699,498.307 217.213,494.807 240.186,494.807 "/>
   <polygon id="_403919728" class="fil1" points="211.613,500.393 215.113,503.907 215.113,526.879 211.613,530.393 208.113,526.879 208.113,503.907 "/>
   <polygon id="_403919632" class="fil1" points="184.439,566.683 180.925,570.183 157.952,570.183 154.439,566.683 157.952,563.183 180.925,563.183 "/>
   <polygon id="_403919536" class="fil1" points="186.525,534.597 190.025,538.11 190.025,561.083 186.525,564.597 183.025,561.083 183.025,538.11 "/>
   <polygon id="_403919440" class="fil1" points="184.439,532.511 180.925,536.011 157.952,536.011 154.439,532.511 157.952,529.011 180.925,529.011 "/>
   <polygon id="_403919344" class="fil1" points="152.353,534.597 155.853,538.11 155.853,561.083 152.353,564.597 148.853,561.083 148.853,538.11 "/>
   <polygon id="_403919248" class="fil1" points="186.525,500.425 190.025,503.938 190.025,526.911 186.525,530.425 183.025,526.911 183.025,503.938 "/>
   <polygon id="_272421024" class="fil1" points="184.439,498.339 180.925,501.839 157.952,501.839 154.439,498.339 157.952,494.839 180.925,494.839 "/>
   <polygon id="_276791520" class="fil1" points="152.353,500.425 155.853,503.938 155.853,526.911 152.353,530.425 148.853,526.911 148.853,503.938 "/>
   <polygon id="_275079008" class="fil1" points="134.439,566.683 130.925,570.183 107.952,570.183 104.439,566.683 107.952,563.183 130.925,563.183 "/>
   <polygon id="_275084144" class="fil1" points="136.525,534.597 140.025,538.11 140.025,561.083 136.525,564.597 133.025,561.083 133.025,538.11 "/>
   <polygon id="_275079992" class="fil1" points="134.439,532.511 130.925,536.011 107.952,536.011 104.439,532.511 107.952,529.011 130.925,529.011 "/>
   <polygon id="_275078984" class="fil1" points="102.353,534.597 105.853,538.11 105.853,561.083 102.353,564.597 98.8529,561.083 98.8529,538.11 "/>
   <polygon id="_275080088" class="fil1" points="136.525,500.425 140.025,503.938 140.025,526.911 136.525,530.425 133.025,526.911 133.025,503.938 "/>
   <polygon id="_275080280" class="fil1" points="134.439,498.339 130.925,501.839 107.952,501.839 104.439,498.339 107.952,494.839 130.925,494.839 "/>
   <path id="_402756808" class="fil1" d="M102.886 500.96l2.9671 2.9785 0 22.9729 -3.5 3.5136 -3.5 -3.5136 0 -17.1271c0.1138,-0.0126 0.2293,-0.0301 0.3448,-0.0529 0.5373,-0.1062 1.0759,-0.3293 1.6247,-0.5915 0.5488,-0.2622 1.108,-0.5636 1.6296,-0.8925 0.5217,-0.329 1.0061,-0.6856 1.3289,-1.0122 0.3228,-0.3267 0.4842,-0.6234 0.5595,-0.9586 0.0753,-0.3353 0.0645,-0.7091 0.027,-1.0181 -0.0375,-0.3091 -0.1017,-0.5535 -0.2166,-0.8832 -0.1149,-0.3298 -0.2806,-0.745 -0.4572,-1.1441 -0.1766,-0.3991 -0.3642,-0.7823 -0.5067,-1.1801 -0.1425,-0.3978 -0.24,-0.8105 -0.2911,-1.0465l-0.01 -0.0446z"/>
   <polygon id="_402762928" class="fil1" points="293.699,566.651 290.186,570.151 267.213,570.151 263.699,566.651 267.213,563.151 290.186,563.151 "/>
   <polygon id="_402763120" class="fil1" points="295.785,534.565 299.285,538.079 299.285,561.051 295.785,564.565 292.285,561.051 292.285,538.079 "/>
   <polygon id="_402763216" class="fil1" points="293.699,532.479 290.186,535.979 267.213,535.979 263.699,532.479 267.213,528.979 290.186,528.979 "/>
   <polygon id="_402756928" class="fil1" points="261.613,534.565 265.113,538.078 265.113,561.052 261.613,564.565 258.113,561.052 258.113,538.078 "/>
   <path id="_402756256" class="fil1" d="M290.102 501.807l-22.8896 0 -3.5136 -3.5 3.5136 -3.5 17.9889 0c0.067,0.3523 0.1746,0.7112 0.3218,1.0925 0.2625,0.6802 0.6506,1.4317 1.0658,2.0036 0.4153,0.5719 0.8579,0.9645 1.3196,1.2344 0.4616,0.27 0.9427,0.4177 1.1906,0.689 0.2481,0.2713 0.2631,0.6664 0.5783,1.2695 0.1135,0.217 0.2657,0.461 0.4246,0.711z"/>
   <polygon id="_402763000" class="fil1" points="261.613,500.393 265.113,503.907 265.113,526.879 261.613,530.393 258.113,526.879 258.113,503.907 "/>
   <path id="_402746680" class="fil1" d="M299.141 503.762l0.1439 0.1445 0 7.5042c-0.2306,0.2375 -0.5183,0.5422 -0.8584,0.8372l-0.0097 0.0112 -0.0161 0.019 -0.028 0.0336c-0.0535,0.0666 -0.1111,0.1476 -0.1723,0.2417 -0.0665,0.1139 -0.099,0.2111 -0.1227,0.3167 -0.0629,0.2813 -0.0629,0.6231 -0.0533,1.2378 0.0096,0.6146 0.0289,1.5023 -0.2972,2.2532 -0.3261,0.7508 -0.9975,1.3651 -1.5427,1.8795 -0.5452,0.5143 -0.9643,0.9289 -1.1013,1.2088 -0.0752,0.1539 0.0058,0.4166 0.2352,0.4942l0.0001 0 0.011 0.0035c0.2379,0.0725 0.5686,0.0725 1.0316,0.2048 0.463,0.1323 1.0584,0.3969 1.2789,0.678 0.2205,0.2811 0.0661,0.5788 -0.1709,0.7827 -0.237,0.2039 -0.5568,0.3143 -0.871,0.4466 -0.3141,0.1322 -0.6229,0.2866 -0.7221,0.689 -0.0992,0.4023 0.0111,1.0528 -0.0275,1.6316 -0.0386,0.5787 -0.226,1.0858 -0.3142,1.626 -0.0882,0.5401 -0.0771,1.1135 0.0667,1.7644 0.1437,0.6508 0.4202,1.3794 0.6958,1.7818 0.0481,0.0702 0.0961,0.1305 0.1435,0.183l-0.6554 0.658 -3.5 -3.5136 0 -22.4693c0.0364,0.0351 0.0744,0.0715 0.1148,0.1088 0.2499,0.2304 0.5942,0.4924 1.0198,0.7114 0.4257,0.2191 0.9328,0.3953 1.5937,0.3756 0.661,-0.0195 1.476,-0.2348 2.1399,-0.5638 0.6639,-0.329 1.1769,-0.7716 1.6171,-1.0613 0.1299,-0.0855 0.2536,-0.1577 0.3708,-0.2188z"/>
   <path id="_402763048" class="fil1" d="M70.5389 519.689c2.1203,3.8849 6.2419,6.5206 10.9794,6.5206 6.9035,0 12.5,-5.5965 12.5,-12.5 0,-4.7375 -2.6357,-8.8591 -6.5206,-10.9794 0.9694,1.7762 1.5206,3.8134 1.5206,5.9794 0,6.9035 -5.5965,12.5 -12.5,12.5 -2.166,0 -4.2032,-0.5512 -5.9794,-1.5206z"/>
   <path id="_402756232" class="fil1" d="M81.5183 501.21c-6.9035,0 -12.5,5.5965 -12.5,12.5 0,1.2214 0.1753,2.4018 0.5021,3.5176 1.6979,1.0183 3.6849,1.6042 5.8088,1.6042 6.2468,0 11.3109,-5.0641 11.3109,-11.3109 0,-2.124 -0.586,-4.111 -1.6043,-5.8089 -1.1159,-0.3267 -2.2964,-0.502 -3.5175,-0.502z"/>
  </g>
 </g>
</svg>
